<?xml version="1.0" encoding="UTF-8"?> <svg xmlns="http://www.w3.org/2000/svg" viewBox="0 0 181 31"><g fill="none" fill-rule="evenodd"><path d="M0 0h180.988v30.997H0z"></path><path fill="#A5C559" fill-rule="nonzero" d="M14.92 26.089c-.353.042-.677-.356-1.004-.654-3.285-2.988-6.572-5.964-9.798-9.037C2.635 14.985 1.081 13.62.394 11.55c-1.03-3.107 0-6.804 2.624-8.92A8.253 8.253 0 0 1 8.183.816c2.61.015 5.184 1.366 6.699 3.536.41.588-.518 1.396-.747 1.963-.02.048-.138-.264-.156-.216-.024-.049-.054-.125-.08-.174-1.09-2.052-3.326-3.422-5.684-3.45h-.079c-2.356.007-4.66 1.378-5.769 3.523-1.086 2.101-1 4.777.53 6.745.902 1.16 2.025 2.138 3.108 3.157 2.58 2.429 5.202 4.82 7.822 7.21l.464.463s.222 2.409.406 2.483a.52.52 0 0 0 .222.033z"></path><path fill="#1D2B3B" d="M21.63.822c2.76.012 5.482 1.51 6.947 3.915 1.538 2.523 1.606 5.95.036 8.403-.793 1.239-1.902 2.24-2.983 3.269-3.392 3.225-6.858 6.355-10.313 9.487l-.104.094a.548.548 0 0 1-.582.034c-.333-.193-.283-.734-.313-1.196-.309-4.79-.668-9.582-.805-14.374-.052-1.812-.013-3.626.882-5.307 1.37-2.576 4.168-4.3 7.16-4.325h.075zm-.01 5.142a3.004 3.004 0 0 1 3.003 3.002 3.004 3.004 0 0 1-6.005 0 3.004 3.004 0 0 1 3.003-3.002z"></path><path fill="#A5C559" fill-rule="nonzero" d="M8.16 5.204c1.358.013 2.671.811 3.303 2.008a3.811 3.811 0 0 1 .072 3.36c-.704 1.482-2.437 2.404-4.11 2.083-1.536-.294-2.81-1.64-3.016-3.19a3.825 3.825 0 0 1 1.166-3.254A3.808 3.808 0 0 1 8.16 5.204zm-.038 1.658c-.945.01-1.837.72-2.04 1.65-.285 1.312.925 2.788 2.427 2.52.851-.153 1.572-.886 1.704-1.747.178-1.169-.774-2.402-2.05-2.423h-.041z"></path><g fill-rule="nonzero"><path fill="#A5C559" d="M38.757 21.102h3.647c.946 0 1.703-.27 2.273-.81.569-.54.853-1.235.853-2.083 0-.869-.284-1.563-.853-2.084-.57-.52-1.327-.781-2.273-.781h-3.647v5.758zm0-8.623h3.213c.869 0 1.578-.25 2.128-.752s.825-1.158.825-1.968-.275-1.466-.825-1.968c-.55-.501-1.26-.752-2.128-.752h-3.213v5.44zM35.14 4.117h7.555c.868 0 1.664.13 2.388.39.723.26 1.346.627 1.867 1.1a5.001 5.001 0 0 1 1.215 1.678c.29.646.434 1.355.434 2.127 0 1.022-.255 1.924-.767 2.705a4.518 4.518 0 0 1-2.07 1.722c1.1.347 1.964.945 2.591 1.794.628.849.941 1.823.941 2.923 0 .81-.15 1.548-.449 2.213-.299.666-.718 1.24-1.259 1.722a5.834 5.834 0 0 1-1.939 1.129 7.234 7.234 0 0 1-2.46.405h-8.047V4.117zm17.54 5.44h3.705v1.446c1.081-1.196 2.268-1.794 3.56-1.794.213 0 .415.01.608.03.193.019.396.057.608.115v3.299a4.723 4.723 0 0 0-1.302-.174c-.618 0-1.23.16-1.838.478-.608.318-1.153.786-1.636 1.403v9.665H52.68V9.557zm11.26 0h3.705v14.468h-3.705V9.557zm-.26-3.994c0-.617.197-1.123.593-1.519.395-.395.902-.593 1.52-.593.617 0 1.123.198 1.519.593.395.396.593.902.593 1.52 0 .617-.198 1.118-.593 1.504-.396.386-.902.579-1.52.579-.617 0-1.124-.193-1.52-.579-.395-.386-.593-.887-.593-1.505zm20.984 18.288c0 1.003-.183 1.924-.55 2.764a6.433 6.433 0 0 1-1.534 2.17c-.656.607-1.447 1.08-2.374 1.418-.926.337-1.939.506-3.039.506-1.66 0-3.357-.367-5.094-1.1v-3.24c.81.443 1.621.79 2.431 1.041.81.251 1.583.376 2.316.376.598 0 1.153-.091 1.664-.274a3.668 3.668 0 0 0 1.303-.782c.357-.337.637-.742.84-1.215.202-.473.303-.989.303-1.548v-.955c-1.138.907-2.364 1.36-3.676 1.36-.965 0-1.847-.188-2.648-.564a6.215 6.215 0 0 1-2.07-1.563c-.579-.665-1.027-1.461-1.346-2.387-.318-.926-.477-1.949-.477-3.067 0-1.12.159-2.142.477-3.068.319-.926.767-1.721 1.346-2.387a6.216 6.216 0 0 1 2.07-1.562c.8-.377 1.683-.565 2.648-.565 1.293 0 2.518.444 3.676 1.331v-.983h3.734V23.85zm-10.16-7.06c0 1.311.329 2.372.985 3.183.656.81 1.514 1.215 2.576 1.215 1.06 0 2.016-.434 2.865-1.302v-6.193c-.849-.868-1.804-1.302-2.865-1.302-1.062 0-1.92.405-2.576 1.216-.656.81-.985 1.87-.985 3.183zM88.686 3.219h3.705v7.582c1.331-1.061 2.74-1.592 4.226-1.592.752 0 1.442.126 2.07.376.626.251 1.172.608 1.635 1.071a4.78 4.78 0 0 1 1.07 1.65c.251.636.377 1.34.377 2.112v9.607h-3.734v-8.942c0-.771-.236-1.403-.709-1.895s-1.085-.738-1.838-.738c-1.1 0-2.132.511-3.097 1.534v10.04h-3.705V3.22zm21.68 6.338h4.167v2.98h-4.168v6.684c0 .598.193 1.09.58 1.476.385.386.896.579 1.533.579.598 0 1.283-.193 2.055-.579v3.067c-1.042.405-2.055.608-3.039.608a5.295 5.295 0 0 1-1.954-.347 4.506 4.506 0 0 1-1.52-.97 4.485 4.485 0 0 1-.998-1.475 4.734 4.734 0 0 1-.362-1.867v-7.176h-2.489v-2.98h2.49v-4.08h3.704v4.08z"></path><path fill="#1D2B3B" d="M118.267 4.117h3.763v16.812h7.988v3.096h-11.751zM131.09 16.79c0-1.118.183-2.14.55-3.067a6.945 6.945 0 0 1 1.548-2.387 7.197 7.197 0 0 1 2.359-1.562c.907-.377 1.91-.565 3.01-.565 1.1 0 2.103.188 3.01.565a7.035 7.035 0 0 1 2.345 1.562 7.054 7.054 0 0 1 1.534 2.387c.366.926.55 1.949.55 3.068 0 1.1-.184 2.117-.55 3.052a7.024 7.024 0 0 1-1.534 2.402 7.035 7.035 0 0 1-2.345 1.563c-.907.376-1.91.564-3.01.564-1.1 0-2.103-.188-3.01-.564a7.196 7.196 0 0 1-2.36-1.563 6.916 6.916 0 0 1-1.548-2.402c-.366-.935-.55-1.953-.55-3.052zm3.791 0c0 .676.092 1.288.275 1.838.183.55.434 1.018.753 1.403.318.386.704.69 1.157.912.454.222.95.333 1.491.333.54 0 1.032-.111 1.476-.333a3.491 3.491 0 0 0 1.143-.912c.319-.385.57-.853.753-1.403.183-.55.275-1.162.275-1.837 0-.656-.092-1.264-.275-1.823-.183-.56-.434-1.032-.753-1.418-.318-.386-.699-.69-1.143-.912a3.255 3.255 0 0 0-1.476-.333c-.54 0-1.037.111-1.49.333-.454.222-.84.526-1.158.912-.319.386-.57.858-.753 1.418a5.823 5.823 0 0 0-.275 1.823zm13.199 0c0-1.118.183-2.14.55-3.067a7.055 7.055 0 0 1 1.534-2.387 7.035 7.035 0 0 1 2.344-1.562c.907-.377 1.91-.565 3.01-.565 1.448 0 2.904.338 4.37 1.013v3.328c-1.273-.83-2.508-1.245-3.704-1.245a4.39 4.39 0 0 0-1.737.333 4.267 4.267 0 0 0-1.36.912 3.96 3.96 0 0 0-.897 1.418 5.097 5.097 0 0 0-.319 1.823c0 .656.106 1.258.319 1.808.212.55.511 1.023.897 1.418s.84.704 1.36.926a4.39 4.39 0 0 0 1.737.333c1.196 0 2.431-.415 3.705-1.245v3.328c-1.467.675-2.923 1.013-4.37 1.013-1.1 0-2.104-.188-3.01-.564a7.035 7.035 0 0 1-2.345-1.563 7.024 7.024 0 0 1-1.534-2.402c-.367-.935-.55-1.953-.55-3.052zm22.374 6.077c-1.293 1.003-2.683 1.505-4.168 1.505a5.186 5.186 0 0 1-1.853-.318 4.386 4.386 0 0 1-1.447-.883 4.031 4.031 0 0 1-.955-1.36 4.33 4.33 0 0 1-.348-1.75c0-.753.17-1.443.507-2.07a4.728 4.728 0 0 1 1.433-1.605c.617-.444 1.35-.791 2.2-1.042.849-.251 1.794-.376 2.836-.376.29 0 .579.004.868.014.29.01.599.024.927.043v-.665c0-.675-.251-1.225-.753-1.65-.502-.424-1.158-.636-1.968-.636-.753 0-1.534.116-2.345.347-.81.232-1.63.579-2.46 1.042v-3.067a13.287 13.287 0 0 1 2.634-.897c.868-.193 1.737-.29 2.605-.29.888 0 1.688.13 2.402.39a5.24 5.24 0 0 1 1.824 1.1 4.981 4.981 0 0 1 1.172 1.693 5.4 5.4 0 0 1 .42 2.142v9.49h-3.531v-1.157zm-5.124-3.327c0 .578.203 1.05.608 1.417.405.367.926.55 1.563.55a3.43 3.43 0 0 0 1.52-.376c.511-.25.989-.598 1.433-1.042v-2.835a14.682 14.682 0 0 0-1.621-.087c-1.042 0-1.887.222-2.533.665-.646.444-.97 1.013-.97 1.708zM177.197 3.219h3.705v20.806h-3.705z"></path></g></g></svg> 